<mxfile host="app.diagrams.net" modified="2021-09-30T15:46:39.093Z" agent="5.0 (Windows NT 10.0; Win64; x64) AppleWebKit/537.36 (KHTML, like Gecko) Chrome/94.0.4606.61 Safari/537.36" etag="5FatMOB_bXx2m72piSRn" version="15.3.8" type="github">
  <diagram id="qXojaY42aiBFxvhF_yrl" name="Page-1">
    <mxGraphModel dx="1422" dy="762" grid="1" gridSize="10" guides="1" tooltips="1" connect="1" arrows="1" fold="1" page="1" pageScale="1" pageWidth="827" pageHeight="1169" math="0" shadow="0">
      <root>
        <mxCell id="0" />
        <mxCell id="1" parent="0" />
        <mxCell id="ZUQluo5VriQcecSHElmV-3" value="" style="edgeStyle=orthogonalEdgeStyle;rounded=0;orthogonalLoop=1;jettySize=auto;html=1;" edge="1" parent="1" source="ZUQluo5VriQcecSHElmV-1" target="ZUQluo5VriQcecSHElmV-2">
          <mxGeometry relative="1" as="geometry" />
        </mxCell>
        <mxCell id="ZUQluo5VriQcecSHElmV-1" value="&lt;font style=&quot;font-size: 20px&quot;&gt;App&lt;/font&gt;" style="rounded=1;whiteSpace=wrap;html=1;fillColor=#1ba1e2;strokeColor=#006EAF;fontColor=#ffffff;" vertex="1" parent="1">
          <mxGeometry x="360" y="400" width="100" height="60" as="geometry" />
        </mxCell>
        <mxCell id="ZUQluo5VriQcecSHElmV-2" value="&lt;font style=&quot;font-size: 20px&quot;&gt;App&lt;/font&gt;" style="rounded=1;whiteSpace=wrap;html=1;fillColor=#1ba1e2;strokeColor=#006EAF;fontColor=#ffffff;" vertex="1" parent="1">
          <mxGeometry x="260" y="510" width="100" height="60" as="geometry" />
        </mxCell>
        <mxCell id="ZUQluo5VriQcecSHElmV-4" value="&lt;font style=&quot;font-size: 15px&quot;&gt;&lt;font style=&quot;font-size: 15px&quot;&gt;React&lt;/font&gt;-&lt;font style=&quot;font-size: 15px&quot;&gt;Router-Dom&lt;br&gt;Component&amp;nbsp;&lt;br&gt;&lt;b&gt;Login&lt;/b&gt; 과 &lt;b&gt;Maker&lt;/b&gt; Componet 경로 설정.&lt;br&gt;&lt;/font&gt;&lt;/font&gt;" style="text;html=1;strokeColor=none;fillColor=none;align=center;verticalAlign=middle;whiteSpace=wrap;rounded=0;labelBackgroundColor=#FFFFFF;" vertex="1" parent="1">
          <mxGeometry x="480" y="400" width="150" height="90" as="geometry" />
        </mxCell>
      </root>
    </mxGraphModel>
  </diagram>
</mxfile>
